<svg xmlns="http://www.w3.org/2000/svg" viewBox="0 0 1200 760"><defs><linearGradient id="g" x1="0" y1="0" x2="1" y2="1"><stop stop-color="#1a0b18"/><stop offset=".5" stop-color="#7b2146"/><stop offset="1" stop-color="#ff7849"/></linearGradient></defs><rect width="1200" height="760" rx="44" fill="#0e0a0d"/><rect x="42" y="42" width="1116" height="676" rx="30" fill="url(#g)" stroke="#4a2638"/><circle cx="84" cy="74" r="7" fill="#ff7849"/><circle cx="108" cy="74" r="7" fill="#d84b83"/><circle cx="132" cy="74" r="7" fill="#ffe4cf"/><g transform="translate(82 138)"><circle cx="44" cy="44" r="38" fill="#0b0b0b" stroke="#ff7849" stroke-width="6"/><circle cx="44" cy="44" r="10" fill="#ff7849"/><text x="105" y="35" font-family="Arial" font-size="34" font-weight="800" fill="#fff">DJ HOTWAX</text><text x="105" y="65" font-family="Arial" font-size="14" letter-spacing="3" fill="#ffb28f">JAZZ • HIP-HOP • GLOBAL • ELECTRONIC</text></g><text x="82" y="315" font-family="Georgia" font-size="76" fill="#fff">Sound without borders.</text><text x="82" y="372" font-family="Arial" font-size="18" fill="#ffd7c7">Albums, visual worlds, genre experiments, and cinematic atmosphere.</text><rect x="82" y="418" width="210" height="52" rx="26" fill="#ff7849"/><text x="130" y="450" font-family="Arial" font-size="15" font-weight="700" fill="#190b10">EXPLORE THE CATALOG</text><g transform="translate(720 235)"><circle cx="190" cy="190" r="185" fill="#080808" stroke="#ffffff22" stroke-width="2"/><circle cx="190" cy="190" r="150" fill="none" stroke="#ff7849" stroke-opacity=".4" stroke-width="2"/><circle cx="190" cy="190" r="98" fill="none" stroke="#fff" stroke-opacity=".15" stroke-width="2"/><circle cx="190" cy="190" r="46" fill="#ff7849"/><circle cx="190" cy="190" r="12" fill="#0b0b0b"/></g><g fill="#fff" opacity=".7"><rect x="82" y="560" width="250" height="86" rx="16"/><rect x="350" y="560" width="250" height="86" rx="16"/><rect x="618" y="560" width="250" height="86" rx="16"/></g><text x="102" y="596" font-family="Arial" font-size="12" fill="#5d2039">NUITS FEUTRÉES</text><text x="370" y="596" font-family="Arial" font-size="12" fill="#5d2039">CINEMATIC SERIES</text><text x="638" y="596" font-family="Arial" font-size="12" fill="#5d2039">GLOBAL SESSIONS</text></svg>