<svg xmlns="http://www.w3.org/2000/svg" viewBox="0 0 1200 760"><defs><linearGradient id="g" x1="0" y1="0" x2="1" y2="1"><stop stop-color="#10111a"/><stop offset="1" stop-color="#25162a"/></linearGradient></defs><rect width="1200" height="760" rx="44" fill="#0b0c12"/><rect x="42" y="42" width="1116" height="676" rx="30" fill="url(#g)" stroke="#3b2740"/><circle cx="84" cy="74" r="7" fill="#ff4f8b"/><circle cx="108" cy="74" r="7" fill="#8f7dff"/><circle cx="132" cy="74" r="7" fill="#fff" opacity=".4"/><g transform="translate(82 132)"><rect width="84" height="84" rx="22" fill="#ff4f8b"/><path d="M20 28h44v30H39l-13 12v-12h-6Z" fill="#11121a"/><text x="112" y="38" font-family="Arial" font-size="38" font-weight="800" fill="#fff">SNARK LOGIC</text><text x="112" y="69" font-family="Arial" font-size="13" letter-spacing="3" fill="#d0b4ce">CREATIVE INTELLIGENCE PROTOTYPE</text></g><text x="82" y="320" font-family="Arial" font-size="64" font-weight="800" fill="#fff">Make the AI argue</text><text x="82" y="382" font-family="Arial" font-size="64" font-weight="800" fill="#ff4f8b">before the ad ships.</text><text x="82" y="430" font-family="Arial" font-size="17" fill="#c7b8c9">Creative, behavioral, finance, and risk agents challenge campaign ideas before production.</text><rect x="82" y="474" width="205" height="50" rx="25" fill="#ff4f8b"/><text x="130" y="505" font-family="Arial" font-size="14" font-weight="700" fill="#161018">OPEN PROTOTYPE</text><g transform="translate(720 245)"><rect width="350" height="355" rx="28" fill="#151622" stroke="#4a3652"/><text x="28" y="45" font-family="Arial" font-size="11" fill="#ff83ad">AGENT ROOM</text><g font-family="Arial" font-size="16" font-weight="700"><rect x="28" y="78" width="294" height="52" rx="14" fill="#282132"/><text x="48" y="110" fill="#fff">CREATIVE ↔ BEHAVIOR</text><rect x="28" y="145" width="294" height="52" rx="14" fill="#282132"/><text x="48" y="177" fill="#fff">FINANCE ↔ RISK</text><rect x="28" y="212" width="294" height="52" rx="14" fill="#ff4f8b"/><text x="48" y="244" fill="#11121a">DISSENT → DECISION</text></g><text x="28" y="315" font-family="Arial" font-size="11" fill="#8d7a91">STRUCTURED DISAGREEMENT • FEEDBACK • PERFORMANCE</text></g></svg>