<svg xmlns="http://www.w3.org/2000/svg" viewBox="0 0 1200 760"><defs><linearGradient id="g" x1="0" y1="0" x2="1" y2="1"><stop stop-color="#070814"/><stop offset="1" stop-color="#18113c"/></linearGradient><linearGradient id="h" x1="0" y1="0" x2="1" y2="0"><stop stop-color="#00d4ff"/><stop offset="1" stop-color="#a18cff"/></linearGradient></defs><rect width="1200" height="760" rx="44" fill="#05060d"/><rect x="42" y="42" width="1116" height="676" rx="30" fill="url(#g)" stroke="#2d2f53"/><circle cx="84" cy="74" r="7" fill="#a18cff"/><circle cx="108" cy="74" r="7" fill="#00d4ff"/><circle cx="132" cy="74" r="7" fill="#ffffff" opacity=".5"/><g transform="translate(82 132)"><path d="M10 18C48 0 78 86 116 68S182 0 220 18" fill="none" stroke="url(#h)" stroke-width="7"/><path d="M10 68C48 86 78 0 116 18s66 68 104 50" fill="none" stroke="url(#h)" stroke-width="7" opacity=".6"/><text x="255" y="43" font-family="Arial" font-size="36" font-weight="800" fill="#fff">VANTA HELIX</text><text x="255" y="72" font-family="Arial" font-size="13" letter-spacing="3" fill="#9d9ec2">ADAPTIVE INTERFACE CONCEPT</text></g><text x="82" y="305" font-family="Arial" font-size="64" font-weight="700" fill="#fff">Computing that adapts</text><text x="82" y="370" font-family="Arial" font-size="64" font-weight="700" fill="url(#h)">around the person.</text><text x="82" y="420" font-family="Arial" font-size="17" fill="#aeb2d4">Privacy-forward adaptive interfaces, local intelligence, and ambient personalization.</text><rect x="82" y="470" width="192" height="50" rx="25" fill="#a18cff"/><text x="127" y="501" font-family="Arial" font-size="14" font-weight="700" fill="#090a16">EXPLORE CONCEPT</text><g transform="translate(760 270)"><rect width="300" height="310" rx="30" fill="#0e1023" stroke="#444a76"/><circle cx="150" cy="125" r="82" fill="none" stroke="#a18cff" stroke-width="2"/><circle cx="150" cy="125" r="54" fill="none" stroke="#00d4ff" stroke-width="2"/><circle cx="150" cy="125" r="14" fill="#fff"/><text x="34" y="245" font-family="Arial" font-size="11" fill="#777da9">ADAPTIVE SIGNAL</text><rect x="34" y="265" width="205" height="6" rx="3" fill="#292d50"/><rect x="34" y="265" width="155" height="6" rx="3" fill="url(#h)"/></g></svg>