<svg xmlns="http://www.w3.org/2000/svg" viewBox="0 0 1440 900" role="img" aria-labelledby="t d"><title id="t">Givewise Insights hero</title><desc id="d">Editorial AI advisory interface artwork</desc><defs><linearGradient id="bg" x1="0" y1="0" x2="1" y2="1"><stop stop-color="#f2eee4"/><stop offset=".58" stop-color="#ded8c9"/><stop offset="1" stop-color="#bfc4ff"/></linearGradient><linearGradient id="accent" x1="0" y1="0" x2="1" y2="1"><stop stop-color="#3157ff"/><stop offset="1" stop-color="#c9ff48"/></linearGradient></defs><rect width="1440" height="900" fill="url(#bg)"/><rect x="82" y="80" width="1276" height="740" rx="34" fill="#111216"/><g opacity=".11" stroke="#fff"><path d="M82 210h1276M82 340h1276M82 470h1276M82 600h1276M82 730h1276"/><path d="M280 80v740M478 80v740M676 80v740M874 80v740M1072 80v740"/></g><text x="140" y="150" fill="#c9ff48" font-family="Arial,sans-serif" font-size="18" letter-spacing="4">GIVEWISE / TRANSFORMATION CONSOLE</text><text x="140" y="270" fill="#fff" font-family="Arial,sans-serif" font-size="78" font-weight="700">Turn AI pressure</text><text x="140" y="350" fill="#aeb2bc" font-family="Arial,sans-serif" font-size="78" font-weight="700">into operating advantage.</text><rect x="140" y="432" width="430" height="210" rx="24" fill="#17191e" stroke="#343840"/><text x="178" y="482" fill="#7f8795" font-family="Arial,sans-serif" font-size="15">ACTIVE TRANSFORMATION LENS</text><text x="178" y="548" fill="#fff" font-family="Arial,sans-serif" font-size="38" font-weight="700">Workflow redesign</text><path d="M178 596h310" stroke="#3157ff" stroke-width="8"/><path d="M178 622h220" stroke="#c9ff48" stroke-width="8"/><circle cx="1004" cy="500" r="194" fill="none" stroke="url(#accent)" stroke-width="4"/><circle cx="1004" cy="500" r="128" fill="none" stroke="#fff" stroke-opacity=".22"/><circle cx="1004" cy="500" r="60" fill="#15171b" stroke="#fff" stroke-opacity=".14"/><path d="M910 524c37-103 97-159 183-167-22 27-34 55-35 85 45 8 81 26 108 55-54 22-107 28-161 18-29 45-61 79-96 104 6-33 6-65 1-95Z" fill="none" stroke="url(#accent)" stroke-width="7" stroke-linejoin="round"/><text x="140" y="760" fill="#9ca3af" font-family="Arial,sans-serif" font-size="16" letter-spacing="3">AI STRATEGY · AGENTIC WORKFLOWS · DATA READINESS · GOVERNANCE</text></svg>