<svg xmlns="http://www.w3.org/2000/svg" viewBox="0 0 1200 800" fill="none">
  <rect width="1200" height="800" rx="40" fill="#F7FAFC"/>
  <circle cx="965" cy="130" r="210" fill="#EAF4FF"/>
  <circle cx="1030" cy="175" r="125" fill="#DDF7F2"/>
  <path d="M160 628c118-136 236-206 354-209 120-3 176 64 284 39 80-19 128-75 220-82" stroke="#17324D" stroke-width="4" stroke-linecap="round" opacity=".16"/>
  <path d="M174 595c92-116 187-168 287-172 111-5 178 43 258 35 82-8 137-53 235-64" stroke="#2F80ED" stroke-width="7" stroke-linecap="round" opacity=".18"/>
  <g transform="translate(250 170)">
    <path d="M305 87c-51-40-113-54-167-29-42 20-67 61-65 103 2 42 28 71 42 112 18 53 7 94-9 133-17 43 4 93 51 107 69 21 133-13 158-72 21-48 17-103 54-144 30-34 54-73 49-117-4-38-22-68-63-93Z" fill="#17324D"/>
    <path d="M352 123c-23-27-61-45-100-48-35-3-71 6-93 28-17 17-24 38-21 59 5 35 30 52 41 86 18 53 7 91-3 123-11 34 5 62 35 72 50 17 90-10 107-53 19-47 9-101 51-146 33-36 31-78-17-121Z" fill="#DDF7F2"/>
    <path d="M218 94c18-16 42-21 67-16" stroke="#2F80ED" stroke-width="7" stroke-linecap="round"/>
    <circle cx="397" cy="86" r="10" fill="#2CB7A7"/>
    <circle cx="425" cy="105" r="8" fill="#2CB7A7" opacity=".8"/>
    <circle cx="449" cy="130" r="6" fill="#2CB7A7" opacity=".6"/>
  </g>
  <text x="80" y="102" fill="#17324D" font-family="Arial, Helvetica, sans-serif" font-size="30" font-weight="700">TFSF / SURVIVOR SUPPORT</text>
  <text x="80" y="145" fill="#557089" font-family="Arial, Helvetica, sans-serif" font-size="18">An evidence-aware public-interest concept</text>
  <text x="80" y="730" fill="#6B8093" font-family="Arial, Helvetica, sans-serif" font-size="16">No diagnosis. No miracle claims. No judgment.</text>
</svg>